PathFileType	4	(X/Y/Z)	G:\Shared drives\HPL_Drive\Pi-Spi Study\20230118_AMCsubject1\Trimmed_left_horiz_add01_rotated.trc
DataRate	CameraRate	NumFrames	NumMarkers	Units	OrigDataRate	OrigDataStartFrame	OrigNumFrames
200.00	200.00	       6	35	mm	200.00	151	       200
Frame#	Time	C7			Sternum			r_AMC1			r_AMC2			r_AMC3			l_AMC1			l_AMC2			l_AMC3			PX			T8			r_humerous			r_elbow_medial			r_elbow_lateral			r_forearm			r_wrist_radius			r_wrist_ulna			r_MCP_1			r_MCP_3			l_humerous			l_elbow_medial			l_elbow_lateral			l_forearm			l_wrist_radius			l_wrist_ulna			l_MCP_1			l_MCP_3			r_ASIS			r_PSIS			l_ASIS			l_PSIS			r_IC			l_IC			TS			AI			AA			
		X1	Y1	Z1	X2	Y2	Z2	X3	Y3	Z3	X4	Y4	Z4	X5	Y5	Z5	X6	Y6	Z6	X7	Y7	Z7	X8	Y8	Z8	X9	Y9	Z9	X10	Y10	Z10	X11	Y11	Z11	X12	Y12	Z12	X13	Y13	Z13	X14	Y14	Z14	X15	Y15	Z15	X16	Y16	Z16	X17	Y17	Z17	X18	Y18	Z18	X19	Y19	Z19	X20	Y20	Z20	X21	Y21	Z21	X22	Y22	Z22	X23	Y23	Z23	X24	Y24	Z24	X25	Y25	Z25	X26	Y26	Z26	X27	Y27	Z27	X28	Y28	Z28	X29	Y29	Z29	X30	Y30	Z30	X31	Y31	Z31	X32	Y32	Z32	X33	Y33	Z33	X34	Y34	Z34	X35	Y35	Z35	

151	0.75	180.888	1368.2655	-254.0737	316.8834	1321.8933	-227.2293	180.9245	1324.9288	-84.4245	214.7456	1332.2817	-48.2075	232.8167	1366.7164	-72.1709	237.1679	1342.2334	-407.7212	282.4675	1364.6997	-417.6122	271.708	1389.1796	-370.7327	395.5333	1133.5859	-214.5952	161.9912	1189.5643	-251.4314	299.7011	1150.1964	-26.9204	230.4019	1006.7402	-49.9291	251.5394	1017.3171	12.7837	308.5446	862.8554	30.2506	356.6659	800.1834	6.6327	311.1384	793.814	30.2462	380.3825	717.9688	16.8872	333.5509	713.9307	36.6841	421.8832	1330.1694	-297.3962	532.2543	1239.0181	-264.3928	558.855	1282.1448	-278.3121	676.1445	1309.8715	-168.6263	713.6644	1326.8853	-102.8581	723.7687	1285.1095	-108.9112	773.1682	1338.3632	-53.6506	779.2534	1295.1445	-53.7505	388.5909	907.0385	-88.6179	193.7072	929.0446	-155.196	368.4655	894.5583	-344.7393	186.2193	922.8829	-258.6782	309.1963	971.8799	-54.9156	278.3235	940.3675	-377.2904	148.2233	1297.0927	-387.3272	171.726	1200.3624	-403.0172	246.3733	1340.1882	-475.1878
152	0.755	180.8265	1368.1647	-253.9496	316.9104	1321.8983	-227.2405	180.9589	1324.9318	-84.4486	214.9267	1332.3733	-48.2492	232.8433	1366.7089	-72.1811	237.1758	1342.2635	-407.6982	282.4682	1364.781	-417.5763	271.7107	1389.1941	-370.7129	395.5706	1133.6351	-214.5843	162.0214	1189.5605	-251.4202	299.7402	1150.2452	-26.8573	230.4443	1006.7842	-49.8937	251.5821	1017.3264	12.759	308.6326	862.9132	30.3317	356.7981	800.2253	6.632	311.6225	794.0983	30.4059	380.4694	717.9393	16.8797	333.533	713.9732	36.7037	421.903	1330.2003	-297.383	532.2734	1239.0363	-264.452	558.9062	1282.1443	-278.3245	676.2378	1309.7894	-168.6567	713.7344	1326.842	-102.8574	723.8085	1285.0592	-108.9335	773.0144	1337.9298	-53.4143	779.2732	1295.114	-53.7323	388.5548	907.0347	-88.5745	193.5947	928.9828	-155.1817	368.4808	894.568	-344.6777	186.2463	922.8978	-258.6454	309.3141	971.902	-54.8939	278.408	940.4033	-377.1736	148.1632	1296.8252	-387.2086	171.7176	1200.3931	-403.0034	246.4033	1340.231	-475.169
153	0.76	180.8357	1368.1627	-253.9633	316.898	1321.8866	-227.2283	180.9601	1324.9437	-84.4646	214.9418	1332.3464	-48.224	232.8622	1366.7457	-72.1932	237.205	1342.3005	-407.7028	282.5217	1364.7846	-417.5651	271.7371	1389.2086	-370.6949	395.5765	1133.603	-214.557	162.0411	1189.5599	-251.3998	299.7907	1150.2469	-26.9189	230.4748	1006.7895	-49.876	251.6272	1017.3866	12.7888	308.6722	862.9102	30.3368	356.7974	800.2419	6.7052	311.6701	794.1071	30.4149	380.514	717.9064	16.93	333.5508	713.9755	36.7714	421.9906	1330.1515	-297.4109	532.3117	1239.0588	-264.4597	558.9737	1282.1096	-278.3361	676.2643	1309.7759	-168.6658	713.8223	1326.7493	-102.8619	723.845	1285.0478	-108.9427	773.0922	1337.8453	-53.4189	779.366	1295.0427	-53.7942	388.6546	907.0134	-88.6143	193.633	928.9813	-155.1835	368.5252	894.5687	-344.6626	186.046	922.9595	-258.6223	309.2452	971.8434	-54.8853	278.3646	940.5057	-377.161	148.1785	1296.8115	-387.2418	171.7613	1200.4152	-403.0256	246.4223	1340.2788	-475.1426
154	0.765	180.8243	1368.1626	-253.9585	316.9183	1321.9073	-227.2363	180.985	1324.9689	-84.4614	214.9752	1332.4023	-48.2338	232.865	1366.7765	-72.1755	237.2424	1342.3123	-407.7183	282.5688	1364.7932	-417.5627	271.7955	1389.2448	-370.6877	395.5964	1133.6543	-214.5699	162.0734	1189.5612	-251.4013	299.7693	1150.3237	-26.8432	230.4908	1006.8295	-49.8629	251.6244	1017.3731	12.8142	308.7098	862.9717	30.3727	356.8101	800.2756	6.7058	311.7347	794.1226	30.4639	380.5116	717.963	16.9524	333.6224	713.9789	36.7885	421.9937	1330.1732	-297.3743	532.3578	1239.0464	-264.4759	558.9938	1282.124	-278.3432	676.3038	1309.7593	-168.661	713.8864	1326.704	-102.8789	723.8928	1285.0076	-108.9613	773.1224	1337.7817	-53.4143	779.437	1294.9416	-53.7808	388.6111	907.0314	-88.5706	193.6661	928.9651	-155.1708	368.5324	894.5904	-344.6427	186.304	922.8954	-258.6191	309.3452	971.942	-54.8739	278.3401	940.4254	-377.2029	148.2084	1296.8711	-387.2081	171.7832	1200.4409	-403.0435	246.4469	1340.2987	-475.1335
155	0.77	180.8255	1368.1599	-253.9515	316.9076	1321.9037	-227.2342	181.016	1325.0006	-84.4524	214.966	1332.3984	-48.2206	232.8665	1366.8033	-72.1704	237.2907	1342.3441	-407.7001	282.6336	1364.8057	-417.6039	271.8073	1389.2689	-370.6908	395.6273	1133.649	-214.5653	162.0587	1189.5505	-251.3783	299.8297	1150.3019	-26.8638	230.4952	1006.8558	-49.8328	251.6676	1017.4213	12.8382	308.7413	863.0206	30.392	356.8917	800.3301	6.7741	311.7487	794.1343	30.4994	380.5567	718.0103	17.0032	333.6277	713.9756	36.8248	422.0187	1330.1605	-297.3813	532.4017	1239.0592	-264.5001	559.0362	1282.1069	-278.3472	676.3434	1309.7352	-168.682	713.9507	1326.6669	-102.9075	723.9155	1285.0023	-108.9783	773.1797	1337.7444	-53.4405	779.484	1294.8925	-53.807	388.7221	907.0524	-88.5786	193.678	928.9854	-155.1327	368.5544	894.5793	-344.6307	186.3364	922.9052	-258.5959	309.3391	971.8934	-54.8443	278.4173	940.4949	-377.1359	148.2226	1296.8943	-387.2134	171.835	1200.4519	-403.0756	246.4869	1340.2966	-475.1516
156	0.775	180.8426	1368.1545	-253.9667	316.928	1321.9258	-227.2221	181.0212	1324.9861	-84.4331	214.9991	1332.4193	-48.2379	232.8667	1366.8414	-72.2313	237.3335	1342.3794	-407.7065	282.679	1364.8363	-417.6074	271.8189	1389.2891	-370.6819	395.6811	1133.7051	-214.5353	162.097	1189.5446	-251.3805	299.6199	1150.0107	-27.254	230.5282	1006.8839	-49.8087	251.6854	1017.4257	12.85	308.7527	863.0036	30.4405	356.9239	800.318	6.8197	311.7853	794.1197	30.5284	380.5749	718.031	17.0659	333.7932	713.9534	36.8584	422.0577	1330.1942	-297.3767	532.3964	1239.041	-264.5067	559.0646	1282.127	-278.347	676.403	1309.6946	-168.6832	713.9627	1326.6586	-102.8888	723.979	1284.8853	-108.99	773.2308	1337.7097	-53.4211	779.5405	1294.793	-53.7812	388.7213	907.015	-88.5806	193.693	928.9775	-155.1192	368.5929	894.5872	-344.5826	186.12	922.9607	-258.5751	309.3836	971.8775	-54.8506	278.378	940.4479	-377.1655	148.2645	1296.8834	-387.2108	171.8449	1200.4791	-403.0482	246.5178	1340.3066	-475.1397
